# xmcd CD database file
#
# Track frame offsets:
#	150
#	23375
#	41942
#	62467
#	79676
#	101734
#	121848
#	136524
#	163471
#
# Disc length: 2403 seconds
#
# Revision: 0
# Processed by: cddbd v1.5.2PL0 Copyright (c) Steve Scherf et al.
# Submitted via: CDex 1.70beta2
#
DISCID=6a096109
DTITLE=Codex Barbes - Chapitre deuxieme 
DYEAR=2017
DGENRE=Jazz
TTITLE0=Marche des gens sans nom
TTITLE1=Swing mauresque
TTITLE2=Estampie de Barbes
TTITLE3=Milan noir
TTITLE4=Douce dame jolie ~ feat. Akino Arai
TTITLE5=Rose de Sahara
TTITLE6=Cheval scythe
TTITLE7=Mbalax ~ la fin de l'est ~
TTITLE8=Pavane
EXTD=YEAR: 2017
EXTT0=
EXTT1=
EXTT2=
EXTT3=
EXTT4=
EXTT5=
EXTT6=
EXTT7=
EXTT8=
PLAYORDER=
